<svg id="Capa_1" enable-background="new 0 0 512 512" height="512" viewBox="0 0 512 512" width="512" xmlns="http://www.w3.org/2000/svg"><g><path d="m5.089 204.96c23.658-116.931 127.004-204.96 250.911-204.96 120.354 0 221.311 83.054 248.681 194.975 1.243 5.084-2.636 9.985-7.87 9.985z" fill="#5db33a"/><path d="m7.56 194h496.881c4.904 19.714 7.522 40.331 7.559 61.554.239 140.104-113.302 255.042-253.399 256.433-68.357.678-130.611-25.438-176.901-68.489-5.82-5.414-9.144-12.993-9.144-20.941v-120.299c0-39.401-31.941-71.342-71.342-71.342 1.224-12.595 3.362-24.922 6.346-36.916z" fill="#5ca33b"/><path d="m420 136.808v297.192c0 5.523-4.477 10-10 10h-327.76c-50.574-46.767-82.24-113.685-82.24-188 0-13.837 0-45.098 0-48v-71.191c0-25.852 20.957-46.809 46.809-46.809h326.383c25.851 0 46.808 20.957 46.808 46.808z" fill="#c8e2fd"/><path d="m40 128c-5.523 0-10 4.477-10 10v238.357c-19.147-35.878-30-76.85-30-120.357 0-3.349 0-118 0-118 0-5.523 4.477-10 10-10z" fill="#a7d0fc"/><path d="m57 202.625c0-4.142 3.358-7.5 7.5-7.5h191.143c4.142 0 7.5 3.358 7.5 7.5s-3.358 7.5-7.5 7.5h-191.143c-4.142 0-7.5-3.358-7.5-7.5zm325.5-7.5h-80.143c-4.142 0-7.5 3.358-7.5 7.5s3.358 7.5 7.5 7.5h80.143c4.142 0 7.5-3.358 7.5-7.5s-3.358-7.5-7.5-7.5zm-318 43.291h80.143c4.142 0 7.5-3.358 7.5-7.5s-3.358-7.5-7.5-7.5h-80.143c-4.142 0-7.5 3.358-7.5 7.5s3.358 7.5 7.5 7.5zm148 13.292h-148c-4.142 0-7.5 3.358-7.5 7.5s3.358 7.5 7.5 7.5h148c4.142 0 7.5-3.358 7.5-7.5s-3.358-7.5-7.5-7.5zm-69.372 28.292h-78.628c-4.142 0-7.5 3.358-7.5 7.5s3.358 7.5 7.5 7.5h78.628c4.142 0 7.5-3.358 7.5-7.5s-3.358-7.5-7.5-7.5zm160.086-56.584h-111.857c-4.142 0-7.5 3.358-7.5 7.5s3.358 7.5 7.5 7.5h111.857c4.142 0 7.5-3.358 7.5-7.5s-3.358-7.5-7.5-7.5zm-238.436 150.028c-4.296 0-7.778 3.482-7.778 7.778s3.482 7.778 7.778 7.778c4.295 0 7.778-3.482 7.778-7.778s-3.483-7.778-7.778-7.778zm27.222 0c-4.295 0-7.778 3.482-7.778 7.778s3.483 7.778 7.778 7.778 7.778-3.482 7.778-7.778-3.483-7.778-7.778-7.778zm27.222 0c-4.295 0-7.778 3.482-7.778 7.778s3.482 7.778 7.778 7.778 7.778-3.482 7.778-7.778-3.482-7.778-7.778-7.778z" fill="#86befb"/><path d="m420 88v50h-420v-50c0-11.046 8.954-20 20-20h380c11.046 0 20 8.954 20 20z" fill="#76b6fa"/><path d="m50 68c-11.046 0-20 8.954-20 20v50h-30v-50c0-11.046 8.954-20 20-20z" fill="#55a4f9"/><path d="m124 103.02v-.039c0-5.512 4.468-9.98 9.98-9.98h260.04c5.512 0 9.98 4.468 9.98 9.98v.039c0 5.512-4.468 9.98-9.98 9.98h-260.04c-5.512 0-9.98-4.468-9.98-9.98z" fill="#fff5f5"/><path d="m34 103c0 5.523-4.477 10-10 10s-10-4.477-10-10 4.477-10 10-10 10 4.477 10 10zm25-10c-5.523 0-10 4.477-10 10s4.477 10 10 10 10-4.477 10-10-4.477-10-10-10zm35 0c-5.523 0-10 4.477-10 10s4.477 10 10 10 10-4.477 10-10-4.477-10-10-10z" fill="#1380e2"/><path d="m472 470.182h-282c-11.046 0-20-8.954-20-20v-194.182c0-11.046 8.954-20 20-20h282c11.046 0 20 8.954 20 20v194.182c0 11.045-8.954 20-20 20z" fill="#ffb52d"/><path d="m220 470.182h-30c-11.046 0-20-8.954-20-20v-194.182c0-11.046 8.954-20 20-20h30c-11.046 0-20 8.954-20 20v194.182c0 11.045 8.954 20 20 20z" fill="#f29500"/><path d="m170 450.222 151.105-110.854c5.889-4.32 13.9-4.32 19.789 0l151.106 110.854c-.022 11.027-8.968 19.96-20 19.96h-282c-11.032 0-19.978-8.933-20-19.96z" fill="#ffc14f"/><path d="m217.294 470h-27.294c-11.032 0-19.978-8.932-20-19.96l30-22.009v22.15c0 10.129 7.528 18.498 17.294 19.819z" fill="#ffb52d"/><path d="m492 256v25.758l-151.106 110.854c-5.889 4.32-13.899 4.32-19.788 0l-151.106-110.854v-25.758c0-11.046 8.954-20 20-20h282c11.046 0 20 8.954 20 20z" fill="#fff04a"/><path d="m200 303.766-30-22.009v-25.757c0-11.046 8.954-20 20-20h30c-11.046 0-20 8.954-20 20z" fill="#ffc14f"/><path d="m512 437c0 41.421-33.579 75-75 75s-75-33.579-75-75 33.579-75 75-75 75 33.578 75 75z" fill="#453d83"/><path d="m512 437c0 14.564-4.151 28.159-11.335 39.665-11.506 7.183-25.101 11.335-39.665 11.335-41.421 0-75-33.579-75-75 0-14.564 4.151-28.159 11.335-39.665 11.506-7.184 25.101-11.335 39.665-11.335 41.421 0 75 33.578 75 75z" fill="#5f55af"/><path d="m485.883 422.519c-.014-.053-.028-.104-.044-.155-3.954-13.1-12.8-23.825-24.906-30.201-12.105-6.375-25.958-7.6-39.006-3.445-25.726 8.189-40.502 35.045-33.64 61.141 5.696 21.654 25.278 37.209 47.62 37.827.048.001.095.002.142.002 2.697 0 4.92-2.148 4.995-4.861.076-2.761-2.1-5.061-4.859-5.137-17.934-.496-33.652-12.986-38.226-30.374-5.508-20.942 6.353-42.496 27.001-49.068 10.478-3.334 21.596-2.353 31.313 2.764 9.695 5.106 16.784 13.686 19.969 24.165 2.023 7.644 1.363 14.738-2.201 23.701-.998 2.507-4.093 8.34-11.27 8.34-1.444 0-2.544-.889-3.071-1.418-1.228-1.233-1.954-3.049-1.945-4.856l.066-13.259c.015-.434.023-.87.023-1.31 0-.32-.004-.638-.012-.955l.122-24.553c.014-2.761-2.214-5.011-4.976-5.024h-.025c-2.749 0-4.985 2.223-4.999 4.976l-.013 2.595c-3.565-2.762-7.916-4.321-12.757-4.321-11.855 0-24.118 10.258-24.118 27.424 0 15.657 10.602 28.395 23.632 28.395 5.677 0 10.816-2.398 14.802-6.436.793 1.615 1.84 3.101 3.112 4.379 2.801 2.814 6.409 4.364 10.16 4.364 10.864 0 17.745-7.564 20.562-14.645 4.373-11.003 5.16-20.271 2.549-30.055zm-51.187 32.39c-6.556 0-13.632-7.032-13.632-18.395 0-10.906 7.179-17.424 14.118-17.424 7.242 0 12.362 6.709 12.647 16.422l-.01 1.943c-.397 9.72-6.131 17.454-13.123 17.454zm-7.696-119.909v-20c0-2.761 2.239-5 5-5s5 2.239 5 5v20c0 2.761-2.239 5-5 5s-5-2.239-5-5zm-29.749.606c-1.953-1.953-1.953-5.118 0-7.071s5.118-1.953 7.071 0l14.142 14.142c1.953 1.953 1.953 5.118 0 7.071s-5.118 1.953-7.071 0zm49.498 7.072c-1.953-1.953-1.953-5.119 0-7.071l14.142-14.142c1.953-1.953 5.118-1.953 7.071 0s1.953 5.119 0 7.071l-14.142 14.142c-1.953 1.952-5.119 1.952-7.071 0z" fill="#fff5f5"/></g></svg>